<svg width="24" height="24" viewBox="0 0 24 24" fill="none" xmlns="http://www.w3.org/2000/svg">
<path d="M15.0912 19.453L13.3375 21.2067C12.3324 22.2118 10.6872 22.2021 9.67073 21.1856L7.9576 19.4725C6.94114 18.456 6.93147 16.8108 7.93653 15.8058L11.5147 12.2276L15.0706 15.7857C16.0871 16.8023 16.0968 18.4474 15.0912 19.453ZM14.2811 18.6428C14.8398 18.0842 14.8306 17.1659 14.2603 16.5956L11.5145 13.8481L8.74668 16.6159C8.18827 17.1743 8.19772 18.0923 8.76774 18.6623L10.4809 20.3755C11.0509 20.9455 11.9689 20.955 12.5274 20.3966L14.2811 18.6428Z" fill="black"/>
<path d="M13.1993 18.2587L12.1441 19.3138C11.7971 19.6608 11.2277 19.6564 10.8751 19.3037L9.8395 18.2682C9.4869 17.9156 9.48241 17.3461 9.82943 16.9991L11.5146 15.3139L13.1888 16.99C13.5414 17.3426 13.5463 17.9117 13.1993 18.2587Z" fill="black"/>
<path d="M7.93817 3.57661L9.69192 1.82286C10.697 0.817797 12.3422 0.827465 13.3587 1.84398L15.0718 3.55711C16.0883 4.57357 16.098 6.21876 15.0929 7.22383L11.5147 10.802L7.95881 7.24386C6.94229 6.22735 6.93257 4.58221 7.93817 3.57661ZM8.74832 4.38675C8.18964 4.94543 8.19882 5.8637 8.76911 6.43399L11.515 9.18146L14.2827 6.41368C14.8411 5.85528 14.8317 4.93727 14.2617 4.36726L12.5485 2.65412C11.9785 2.08405 11.0605 2.0746 10.5021 2.63301L8.74832 4.38675Z" fill="black"/>
<path d="M9.83009 4.77092L10.8852 3.71578C11.2322 3.36877 11.8016 3.37323 12.1543 3.72585L13.1899 4.76145C13.5425 5.11405 13.5469 5.68346 13.1999 6.03048L11.5147 7.7157L9.84053 6.03958C9.48791 5.68696 9.48307 5.11794 9.83009 4.77092Z" fill="black"/>
<path d="M19.4529 15.0914L21.2067 13.3376C22.2117 12.3326 22.2021 10.6874 21.1856 9.67085L19.4724 7.95772C18.456 6.94126 16.8108 6.93159 15.8057 7.93666L12.2276 11.5148L15.7857 15.0707C16.8022 16.0873 18.4473 16.097 19.4529 15.0914ZM18.6428 14.2812C18.0841 14.8399 17.1658 14.8307 16.5956 14.2604L13.8481 11.5146L16.6159 8.7468C17.1743 8.18839 18.0923 8.19785 18.6623 8.76786L20.3754 10.481C20.9455 11.0511 20.9549 11.9691 20.3965 12.5275L18.6428 14.2812Z" fill="black"/>
<path d="M18.2586 13.1994L19.3138 12.1443C19.6608 11.7972 19.6563 11.2278 19.3037 10.8752L18.2681 9.83962C17.9155 9.48703 17.3461 9.48254 16.9991 9.82956L15.3138 11.5148L16.99 13.1889C17.3426 13.5416 17.9116 13.5464 18.2586 13.1994Z" fill="black"/>
</svg>
