<svg width="77" height="44" viewBox="0 0 77 44" fill="none" xmlns="http://www.w3.org/2000/svg">
<path d="M39.4331 6.03097C39.7136 6.03097 39.9409 5.80358 39.9409 5.52308C39.9409 5.24259 39.7136 5.0152 39.4331 5.0152C39.1526 5.0152 38.9252 5.24259 38.9252 5.52308C38.9252 5.80358 39.1526 6.03097 39.4331 6.03097Z" fill="black"/>
<path d="M42.819 6.03097C43.0995 6.03097 43.3269 5.80358 43.3269 5.52308C43.3269 5.24259 43.0995 5.0152 42.819 5.0152C42.5385 5.0152 42.3111 5.24259 42.3111 5.52308C42.3111 5.80358 42.5385 6.03097 42.819 6.03097Z" fill="black"/>
<path d="M41.126 7.72396C41.4065 7.72396 41.6339 7.49657 41.6339 7.21607C41.6339 6.93558 41.4065 6.70819 41.126 6.70819C40.8455 6.70819 40.6181 6.93558 40.6181 7.21607C40.6181 7.49657 40.8455 7.72396 41.126 7.72396Z" fill="black"/>
<path d="M42.819 7.72396C43.0995 7.72396 43.3269 7.49657 43.3269 7.21607C43.3269 6.93558 43.0995 6.70819 42.819 6.70819C42.5385 6.70819 42.3111 6.93558 42.3111 7.21607C42.3111 7.49657 42.5385 7.72396 42.819 7.72396Z" fill="black"/>
<path d="M37.7402 9.4169C38.0207 9.4169 38.2481 9.18951 38.2481 8.90901C38.2481 8.62851 38.0207 8.40112 37.7402 8.40112C37.4597 8.40112 37.2323 8.62851 37.2323 8.90901C37.2323 9.18951 37.4597 9.4169 37.7402 9.4169Z" fill="black"/>
<path d="M39.4331 9.4169C39.7136 9.4169 39.9409 9.18951 39.9409 8.90901C39.9409 8.62851 39.7136 8.40112 39.4331 8.40112C39.1526 8.40112 38.9252 8.62851 38.9252 8.90901C38.9252 9.18951 39.1526 9.4169 39.4331 9.4169Z" fill="black"/>
<path d="M37.7402 12.8028C38.0207 12.8028 38.2481 12.5754 38.2481 12.2949C38.2481 12.0144 38.0207 11.787 37.7402 11.787C37.4597 11.787 37.2323 12.0144 37.2323 12.2949C37.2323 12.5754 37.4597 12.8028 37.7402 12.8028Z" fill="black"/>
<path d="M39.4331 12.8028C39.7136 12.8028 39.9409 12.5754 39.9409 12.2949C39.9409 12.0144 39.7136 11.787 39.4331 11.787C39.1526 11.787 38.9252 12.0144 38.9252 12.2949C38.9252 12.5754 39.1526 12.8028 39.4331 12.8028Z" fill="black"/>
<path d="M42.819 12.8028C43.0995 12.8028 43.3269 12.5754 43.3269 12.2949C43.3269 12.0144 43.0995 11.787 42.819 11.787C42.5385 11.787 42.3111 12.0144 42.3111 12.2949C42.3111 12.5754 42.5385 12.8028 42.819 12.8028Z" fill="black"/>
<path d="M36.0472 14.4958C36.3277 14.4958 36.5551 14.2684 36.5551 13.9879C36.5551 13.7074 36.3277 13.48 36.0472 13.48C35.7667 13.48 35.5393 13.7074 35.5393 13.9879C35.5393 14.2684 35.7667 14.4958 36.0472 14.4958Z" fill="black"/>
<path d="M41.126 14.4958C41.4065 14.4958 41.6339 14.2684 41.6339 13.9879C41.6339 13.7074 41.4065 13.48 41.126 13.48C40.8455 13.48 40.6181 13.7074 40.6181 13.9879C40.6181 14.2684 40.8455 14.4958 41.126 14.4958Z" fill="black"/>
<path d="M42.819 14.4958C43.0995 14.4958 43.3269 14.2684 43.3269 13.9879C43.3269 13.7074 43.0995 13.48 42.819 13.48C42.5385 13.48 42.3111 13.7074 42.3111 13.9879C42.3111 14.2684 42.5385 14.4958 42.819 14.4958Z" fill="black"/>
<path d="M36.0472 16.1887C36.3277 16.1887 36.5551 15.9613 36.5551 15.6808C36.5551 15.4003 36.3277 15.1729 36.0472 15.1729C35.7667 15.1729 35.5393 15.4003 35.5393 15.6808C35.5393 15.9613 35.7667 16.1887 36.0472 16.1887Z" fill="black"/>
<path d="M39.4331 16.1887C39.7136 16.1887 39.9409 15.9613 39.9409 15.6808C39.9409 15.4003 39.7136 15.1729 39.4331 15.1729C39.1526 15.1729 38.9252 15.4003 38.9252 15.6808C38.9252 15.9613 39.1526 16.1887 39.4331 16.1887Z" fill="black"/>
<path d="M42.819 16.1887C43.0995 16.1887 43.3269 15.9613 43.3269 15.6808C43.3269 15.4003 43.0995 15.1729 42.819 15.1729C42.5385 15.1729 42.3111 15.4003 42.3111 15.6808C42.3111 15.9613 42.5385 16.1887 42.819 16.1887Z" fill="black"/>
<path d="M39.4331 17.8816C39.7136 17.8816 39.9409 17.6542 39.9409 17.3737C39.9409 17.0932 39.7136 16.8658 39.4331 16.8658C39.1526 16.8658 38.9252 17.0932 38.9252 17.3737C38.9252 17.6542 39.1526 17.8816 39.4331 17.8816Z" fill="black"/>
<path d="M41.126 17.8816C41.4065 17.8816 41.6339 17.6542 41.6339 17.3737C41.6339 17.0932 41.4065 16.8658 41.126 16.8658C40.8455 16.8658 40.6181 17.0932 40.6181 17.3737C40.6181 17.6542 40.8455 17.8816 41.126 17.8816Z" fill="black"/>
<path d="M42.819 17.8816C43.0995 17.8816 43.3269 17.6542 43.3269 17.3737C43.3269 17.0932 43.0995 16.8658 42.819 16.8658C42.5385 16.8658 42.3111 17.0932 42.3111 17.3737C42.3111 17.6542 42.5385 17.8816 42.819 17.8816Z" fill="black"/>
<path d="M22.5036 19.5747C22.7841 19.5747 23.0115 19.3473 23.0115 19.0668C23.0115 18.7863 22.7841 18.5589 22.5036 18.5589C22.2231 18.5589 21.9957 18.7863 21.9957 19.0668C21.9957 19.3473 22.2231 19.5747 22.5036 19.5747Z" fill="black"/>
<path d="M27.5824 19.5747C27.8629 19.5747 28.0903 19.3473 28.0903 19.0668C28.0903 18.7863 27.8629 18.5589 27.5824 18.5589C27.3019 18.5589 27.0745 18.7863 27.0745 19.0668C27.0745 19.3473 27.3019 19.5747 27.5824 19.5747Z" fill="black"/>
<path d="M30.9684 19.5747C31.2489 19.5747 31.4763 19.3473 31.4763 19.0668C31.4763 18.7863 31.2489 18.5589 30.9684 18.5589C30.6879 18.5589 30.4605 18.7863 30.4605 19.0668C30.4605 19.3473 30.6879 19.5747 30.9684 19.5747Z" fill="black"/>
<path d="M32.6613 19.5747C32.9418 19.5747 33.1692 19.3473 33.1692 19.0668C33.1692 18.7863 32.9418 18.5589 32.6613 18.5589C32.3808 18.5589 32.1534 18.7863 32.1534 19.0668C32.1534 19.3473 32.3808 19.5747 32.6613 19.5747Z" fill="black"/>
<path d="M36.0472 19.5747C36.3277 19.5747 36.5551 19.3473 36.5551 19.0668C36.5551 18.7863 36.3277 18.5589 36.0472 18.5589C35.7667 18.5589 35.5393 18.7863 35.5393 19.0668C35.5393 19.3473 35.7667 19.5747 36.0472 19.5747Z" fill="black"/>
<path d="M39.4331 19.5747C39.7136 19.5747 39.9409 19.3473 39.9409 19.0668C39.9409 18.7863 39.7136 18.5589 39.4331 18.5589C39.1526 18.5589 38.9252 18.7863 38.9252 19.0668C38.9252 19.3473 39.1526 19.5747 39.4331 19.5747Z" fill="black"/>
<path d="M44.512 19.5747C44.7925 19.5747 45.0199 19.3473 45.0199 19.0668C45.0199 18.7863 44.7925 18.5589 44.512 18.5589C44.2315 18.5589 44.0041 18.7863 44.0041 19.0668C44.0041 19.3473 44.2315 19.5747 44.512 19.5747Z" fill="black"/>
<path d="M47.8978 19.5747C48.1783 19.5747 48.4057 19.3473 48.4057 19.0668C48.4057 18.7863 48.1783 18.5589 47.8978 18.5589C47.6173 18.5589 47.3899 18.7863 47.3899 19.0668C47.3899 19.3473 47.6173 19.5747 47.8978 19.5747Z" fill="black"/>
<path d="M52.8978 19.5747C53.1783 19.5747 53.4057 19.3473 53.4057 19.0668C53.4057 18.7863 53.1783 18.5589 52.8978 18.5589C52.6173 18.5589 52.3899 18.7863 52.3899 19.0668C52.3899 19.3473 52.6173 19.5747 52.8978 19.5747Z" fill="black"/>
<path d="M54.8978 19.5747C55.1783 19.5747 55.4057 19.3473 55.4057 19.0668C55.4057 18.7863 55.1783 18.5589 54.8978 18.5589C54.6173 18.5589 54.3899 18.7863 54.3899 19.0668C54.3899 19.3473 54.6173 19.5747 54.8978 19.5747Z" fill="black"/>
<path d="M24.1965 22.9605C24.477 22.9605 24.7044 22.7332 24.7044 22.4527C24.7044 22.1722 24.477 21.9448 24.1965 21.9448C23.916 21.9448 23.6886 22.1722 23.6886 22.4527C23.6886 22.7332 23.916 22.9605 24.1965 22.9605Z" fill="black"/>
<path d="M29.2754 22.9605C29.5559 22.9605 29.7833 22.7332 29.7833 22.4527C29.7833 22.1722 29.5559 21.9448 29.2754 21.9448C28.9949 21.9448 28.7675 22.1722 28.7675 22.4527C28.7675 22.7332 28.9949 22.9605 29.2754 22.9605Z" fill="black"/>
<path d="M32.6613 22.9605C32.9418 22.9605 33.1692 22.7332 33.1692 22.4527C33.1692 22.1722 32.9418 21.9448 32.6613 21.9448C32.3808 21.9448 32.1534 22.1722 32.1534 22.4527C32.1534 22.7332 32.3808 22.9605 32.6613 22.9605Z" fill="black"/>
<path d="M36.0472 22.9605C36.3277 22.9605 36.5551 22.7332 36.5551 22.4527C36.5551 22.1722 36.3277 21.9448 36.0472 21.9448C35.7667 21.9448 35.5393 22.1722 35.5393 22.4527C35.5393 22.7332 35.7667 22.9605 36.0472 22.9605Z" fill="black"/>
<path d="M39.4331 22.9605C39.7136 22.9605 39.9409 22.7332 39.9409 22.4527C39.9409 22.1722 39.7136 21.9448 39.4331 21.9448C39.1526 21.9448 38.9252 22.1722 38.9252 22.4527C38.9252 22.7332 39.1526 22.9605 39.4331 22.9605Z" fill="black"/>
<path d="M42.819 22.9605C43.0995 22.9605 43.3269 22.7332 43.3269 22.4527C43.3269 22.1722 43.0995 21.9448 42.819 21.9448C42.5385 21.9448 42.3111 22.1722 42.3111 22.4527C42.3111 22.7332 42.5385 22.9605 42.819 22.9605Z" fill="black"/>
<path d="M44.512 22.9605C44.7925 22.9605 45.0199 22.7332 45.0199 22.4527C45.0199 22.1722 44.7925 21.9448 44.512 21.9448C44.2315 21.9448 44.0041 22.1722 44.0041 22.4527C44.0041 22.7332 44.2315 22.9605 44.512 22.9605Z" fill="black"/>
<path d="M51.2838 22.9605C51.5643 22.9605 51.7917 22.7332 51.7917 22.4527C51.7917 22.1722 51.5643 21.9448 51.2838 21.9448C51.0033 21.9448 50.7759 22.1722 50.7759 22.4527C50.7759 22.7332 51.0033 22.9605 51.2838 22.9605Z" fill="black"/>
<path d="M56.3626 22.9605C56.6431 22.9605 56.8705 22.7332 56.8705 22.4527C56.8705 22.1722 56.6431 21.9448 56.3626 21.9448C56.0821 21.9448 55.8547 22.1722 55.8547 22.4527C55.8547 22.7332 56.0821 22.9605 56.3626 22.9605Z" fill="black"/>
<path d="M24.1965 24.6534C24.477 24.6534 24.7044 24.4261 24.7044 24.1456C24.7044 23.8651 24.477 23.6377 24.1965 23.6377C23.916 23.6377 23.6886 23.8651 23.6886 24.1456C23.6886 24.4261 23.916 24.6534 24.1965 24.6534Z" fill="black"/>
<path d="M25.8895 24.6534C26.17 24.6534 26.3973 24.4261 26.3973 24.1456C26.3973 23.8651 26.17 23.6377 25.8895 23.6377C25.609 23.6377 25.3816 23.8651 25.3816 24.1456C25.3816 24.4261 25.609 24.6534 25.8895 24.6534Z" fill="black"/>
<path d="M27.5824 24.6534C27.8629 24.6534 28.0903 24.4261 28.0903 24.1456C28.0903 23.8651 27.8629 23.6377 27.5824 23.6377C27.3019 23.6377 27.0745 23.8651 27.0745 24.1456C27.0745 24.4261 27.3019 24.6534 27.5824 24.6534Z" fill="black"/>
<path d="M29.2754 24.6534C29.5559 24.6534 29.7833 24.4261 29.7833 24.1456C29.7833 23.8651 29.5559 23.6377 29.2754 23.6377C28.9949 23.6377 28.7675 23.8651 28.7675 24.1456C28.7675 24.4261 28.9949 24.6534 29.2754 24.6534Z" fill="black"/>
<path d="M34.3542 24.6534C34.6347 24.6534 34.8621 24.4261 34.8621 24.1456C34.8621 23.8651 34.6347 23.6377 34.3542 23.6377C34.0737 23.6377 33.8463 23.8651 33.8463 24.1456C33.8463 24.4261 34.0737 24.6534 34.3542 24.6534Z" fill="black"/>
<path d="M36.0472 24.6534C36.3277 24.6534 36.5551 24.4261 36.5551 24.1456C36.5551 23.8651 36.3277 23.6377 36.0472 23.6377C35.7667 23.6377 35.5393 23.8651 35.5393 24.1456C35.5393 24.4261 35.7667 24.6534 36.0472 24.6534Z" fill="black"/>
<path d="M39.4331 24.6534C39.7136 24.6534 39.9409 24.4261 39.9409 24.1456C39.9409 23.8651 39.7136 23.6377 39.4331 23.6377C39.1526 23.6377 38.9252 23.8651 38.9252 24.1456C38.9252 24.4261 39.1526 24.6534 39.4331 24.6534Z" fill="black"/>
<path d="M41.126 24.6534C41.4065 24.6534 41.6339 24.4261 41.6339 24.1456C41.6339 23.8651 41.4065 23.6377 41.126 23.6377C40.8455 23.6377 40.6181 23.8651 40.6181 24.1456C40.6181 24.4261 40.8455 24.6534 41.126 24.6534Z" fill="black"/>
<path d="M51.2838 24.6534C51.5643 24.6534 51.7917 24.4261 51.7917 24.1456C51.7917 23.8651 51.5643 23.6377 51.2838 23.6377C51.0033 23.6377 50.7759 23.8651 50.7759 24.1456C50.7759 24.4261 51.0033 24.6534 51.2838 24.6534Z" fill="black"/>
<path d="M56.3626 24.6534C56.6431 24.6534 56.8705 24.4261 56.8705 24.1456C56.8705 23.8651 56.6431 23.6377 56.3626 23.6377C56.0821 23.6377 55.8547 23.8651 55.8547 24.1456C55.8547 24.4261 56.0821 24.6534 56.3626 24.6534Z" fill="black"/>
<path d="M22.5036 26.3465C22.7841 26.3465 23.0115 26.1191 23.0115 25.8386C23.0115 25.5581 22.7841 25.3307 22.5036 25.3307C22.2231 25.3307 21.9957 25.5581 21.9957 25.8386C21.9957 26.1191 22.2231 26.3465 22.5036 26.3465Z" fill="black"/>
<path d="M24.1965 26.3465C24.477 26.3465 24.7044 26.1191 24.7044 25.8386C24.7044 25.5581 24.477 25.3307 24.1965 25.3307C23.916 25.3307 23.6886 25.5581 23.6886 25.8386C23.6886 26.1191 23.916 26.3465 24.1965 26.3465Z" fill="black"/>
<path d="M25.8895 26.3465C26.17 26.3465 26.3973 26.1191 26.3973 25.8386C26.3973 25.5581 26.17 25.3307 25.8895 25.3307C25.609 25.3307 25.3816 25.5581 25.3816 25.8386C25.3816 26.1191 25.609 26.3465 25.8895 26.3465Z" fill="black"/>
<path d="M32.6613 26.3465C32.9418 26.3465 33.1692 26.1191 33.1692 25.8386C33.1692 25.5581 32.9418 25.3307 32.6613 25.3307C32.3808 25.3307 32.1534 25.5581 32.1534 25.8386C32.1534 26.1191 32.3808 26.3465 32.6613 26.3465Z" fill="black"/>
<path d="M42.819 26.3465C43.0995 26.3465 43.3269 26.1191 43.3269 25.8386C43.3269 25.5581 43.0995 25.3307 42.819 25.3307C42.5385 25.3307 42.3111 25.5581 42.3111 25.8386C42.3111 26.1191 42.5385 26.3465 42.819 26.3465Z" fill="black"/>
<path d="M46.2049 26.3465C46.4854 26.3465 46.7127 26.1191 46.7127 25.8386C46.7127 25.5581 46.4854 25.3307 46.2049 25.3307C45.9244 25.3307 45.697 25.5581 45.697 25.8386C45.697 26.1191 45.9244 26.3465 46.2049 26.3465Z" fill="black"/>
<path d="M49.5908 26.3465C49.8713 26.3465 50.0987 26.1191 50.0987 25.8386C50.0987 25.5581 49.8713 25.3307 49.5908 25.3307C49.3103 25.3307 49.0829 25.5581 49.0829 25.8386C49.0829 26.1191 49.3103 26.3465 49.5908 26.3465Z" fill="black"/>
<path d="M54.6697 26.3465C54.9502 26.3465 55.1776 26.1191 55.1776 25.8386C55.1776 25.5581 54.9502 25.3307 54.6697 25.3307C54.3892 25.3307 54.1618 25.5581 54.1618 25.8386C54.1618 26.1191 54.3892 26.3465 54.6697 26.3465Z" fill="black"/>
<path d="M36.0472 28.0393C36.3277 28.0393 36.5551 27.812 36.5551 27.5315C36.5551 27.251 36.3277 27.0236 36.0472 27.0236C35.7667 27.0236 35.5393 27.251 35.5393 27.5315C35.5393 27.812 35.7667 28.0393 36.0472 28.0393Z" fill="black"/>
<path d="M39.4331 28.0393C39.7136 28.0393 39.9409 27.812 39.9409 27.5315C39.9409 27.251 39.7136 27.0236 39.4331 27.0236C39.1526 27.0236 38.9252 27.251 38.9252 27.5315C38.9252 27.812 39.1526 28.0393 39.4331 28.0393Z" fill="black"/>
<path d="M41.126 28.0393C41.4065 28.0393 41.6339 27.812 41.6339 27.5315C41.6339 27.251 41.4065 27.0236 41.126 27.0236C40.8455 27.0236 40.6181 27.251 40.6181 27.5315C40.6181 27.812 40.8455 28.0393 41.126 28.0393Z" fill="black"/>
<path d="M47.8978 28.0393C48.1783 28.0393 48.4057 27.812 48.4057 27.5315C48.4057 27.251 48.1783 27.0236 47.8978 27.0236C47.6173 27.0236 47.3899 27.251 47.3899 27.5315C47.3899 27.812 47.6173 28.0393 47.8978 28.0393Z" fill="black"/>
<path d="M49.5908 28.0393C49.8713 28.0393 50.0987 27.812 50.0987 27.5315C50.0987 27.251 49.8713 27.0236 49.5908 27.0236C49.3103 27.0236 49.0829 27.251 49.0829 27.5315C49.0829 27.812 49.3103 28.0393 49.5908 28.0393Z" fill="black"/>
<path d="M51.2838 28.0393C51.5643 28.0393 51.7917 27.812 51.7917 27.5315C51.7917 27.251 51.5643 27.0236 51.2838 27.0236C51.0033 27.0236 50.7759 27.251 50.7759 27.5315C50.7759 27.812 51.0033 28.0393 51.2838 28.0393Z" fill="black"/>
<path d="M52.9766 28.0393C53.2571 28.0393 53.4845 27.812 53.4845 27.5315C53.4845 27.251 53.2571 27.0236 52.9766 27.0236C52.6962 27.0236 52.4688 27.251 52.4688 27.5315C52.4688 27.812 52.6962 28.0393 52.9766 28.0393Z" fill="black"/>
<path d="M56.3626 28.0393C56.6431 28.0393 56.8705 27.812 56.8705 27.5315C56.8705 27.251 56.6431 27.0236 56.3626 27.0236C56.0821 27.0236 55.8547 27.251 55.8547 27.5315C55.8547 27.812 56.0821 28.0393 56.3626 28.0393Z" fill="black"/>
<path d="M37.7402 29.7323C38.0207 29.7323 38.2481 29.5049 38.2481 29.2244C38.2481 28.9439 38.0207 28.7166 37.7402 28.7166C37.4597 28.7166 37.2323 28.9439 37.2323 29.2244C37.2323 29.5049 37.4597 29.7323 37.7402 29.7323Z" fill="black"/>
<path d="M44.512 29.7323C44.7925 29.7323 45.0199 29.5049 45.0199 29.2244C45.0199 28.9439 44.7925 28.7166 44.512 28.7166C44.2315 28.7166 44.0041 28.9439 44.0041 29.2244C44.0041 29.5049 44.2315 29.7323 44.512 29.7323Z" fill="black"/>
<path d="M47.8978 29.7323C48.1783 29.7323 48.4057 29.5049 48.4057 29.2244C48.4057 28.9439 48.1783 28.7166 47.8978 28.7166C47.6173 28.7166 47.3899 28.9439 47.3899 29.2244C47.3899 29.5049 47.6173 29.7323 47.8978 29.7323Z" fill="black"/>
<path d="M52.9766 29.7323C53.2571 29.7323 53.4845 29.5049 53.4845 29.2244C53.4845 28.9439 53.2571 28.7166 52.9766 28.7166C52.6962 28.7166 52.4688 28.9439 52.4688 29.2244C52.4688 29.5049 52.6962 29.7323 52.9766 29.7323Z" fill="black"/>
<path d="M54.6697 29.7323C54.9502 29.7323 55.1776 29.5049 55.1776 29.2244C55.1776 28.9439 54.9502 28.7166 54.6697 28.7166C54.3892 28.7166 54.1618 28.9439 54.1618 29.2244C54.1618 29.5049 54.3892 29.7323 54.6697 29.7323Z" fill="black"/>
<path d="M36.0472 31.4253C36.3277 31.4253 36.5551 31.1979 36.5551 30.9174C36.5551 30.6369 36.3277 30.4095 36.0472 30.4095C35.7667 30.4095 35.5393 30.6369 35.5393 30.9174C35.5393 31.1979 35.7667 31.4253 36.0472 31.4253Z" fill="black"/>
<path d="M37.7402 31.4253C38.0207 31.4253 38.2481 31.1979 38.2481 30.9174C38.2481 30.6369 38.0207 30.4095 37.7402 30.4095C37.4597 30.4095 37.2323 30.6369 37.2323 30.9174C37.2323 31.1979 37.4597 31.4253 37.7402 31.4253Z" fill="black"/>
<path d="M39.4331 31.4253C39.7136 31.4253 39.9409 31.1979 39.9409 30.9174C39.9409 30.6369 39.7136 30.4095 39.4331 30.4095C39.1526 30.4095 38.9252 30.6369 38.9252 30.9174C38.9252 31.1979 39.1526 31.4253 39.4331 31.4253Z" fill="black"/>
<path d="M41.126 31.4253C41.4065 31.4253 41.6339 31.1979 41.6339 30.9174C41.6339 30.6369 41.4065 30.4095 41.126 30.4095C40.8455 30.4095 40.6181 30.6369 40.6181 30.9174C40.6181 31.1979 40.8455 31.4253 41.126 31.4253Z" fill="black"/>
<path d="M42.819 31.4253C43.0995 31.4253 43.3269 31.1979 43.3269 30.9174C43.3269 30.6369 43.0995 30.4095 42.819 30.4095C42.5385 30.4095 42.3111 30.6369 42.3111 30.9174C42.3111 31.1979 42.5385 31.4253 42.819 31.4253Z" fill="black"/>
<path d="M44.512 31.4253C44.7925 31.4253 45.0199 31.1979 45.0199 30.9174C45.0199 30.6369 44.7925 30.4095 44.512 30.4095C44.2315 30.4095 44.0041 30.6369 44.0041 30.9174C44.0041 31.1979 44.2315 31.4253 44.512 31.4253Z" fill="black"/>
<path d="M47.8978 31.4253C48.1783 31.4253 48.4057 31.1979 48.4057 30.9174C48.4057 30.6369 48.1783 30.4095 47.8978 30.4095C47.6173 30.4095 47.3899 30.6369 47.3899 30.9174C47.3899 31.1979 47.6173 31.4253 47.8978 31.4253Z" fill="black"/>
<path d="M49.5908 31.4253C49.8713 31.4253 50.0987 31.1979 50.0987 30.9174C50.0987 30.6369 49.8713 30.4095 49.5908 30.4095C49.3103 30.4095 49.0829 30.6369 49.0829 30.9174C49.0829 31.1979 49.3103 31.4253 49.5908 31.4253Z" fill="black"/>
<path d="M39.4331 33.1182C39.7136 33.1182 39.9409 32.8909 39.9409 32.6104C39.9409 32.3299 39.7136 32.1025 39.4331 32.1025C39.1526 32.1025 38.9252 32.3299 38.9252 32.6104C38.9252 32.8909 39.1526 33.1182 39.4331 33.1182Z" fill="black"/>
<path d="M41.126 33.1182C41.4065 33.1182 41.6339 32.8909 41.6339 32.6104C41.6339 32.3299 41.4065 32.1025 41.126 32.1025C40.8455 32.1025 40.6181 32.3299 40.6181 32.6104C40.6181 32.8909 40.8455 33.1182 41.126 33.1182Z" fill="black"/>
<path d="M46.2049 33.1182C46.4854 33.1182 46.7127 32.8909 46.7127 32.6104C46.7127 32.3299 46.4854 32.1025 46.2049 32.1025C45.9244 32.1025 45.697 32.3299 45.697 32.6104C45.697 32.8909 45.9244 33.1182 46.2049 33.1182Z" fill="black"/>
<path d="M47.8978 33.1182C48.1783 33.1182 48.4057 32.8909 48.4057 32.6104C48.4057 32.3299 48.1783 32.1025 47.8978 32.1025C47.6173 32.1025 47.3899 32.3299 47.3899 32.6104C47.3899 32.8909 47.6173 33.1182 47.8978 33.1182Z" fill="black"/>
<path d="M49.5908 33.1182C49.8713 33.1182 50.0987 32.8909 50.0987 32.6104C50.0987 32.3299 49.8713 32.1025 49.5908 32.1025C49.3103 32.1025 49.0829 32.3299 49.0829 32.6104C49.0829 32.8909 49.3103 33.1182 49.5908 33.1182Z" fill="black"/>
<path d="M51.2838 33.1182C51.5643 33.1182 51.7917 32.8909 51.7917 32.6104C51.7917 32.3299 51.5643 32.1025 51.2838 32.1025C51.0033 32.1025 50.7759 32.3299 50.7759 32.6104C50.7759 32.8909 51.0033 33.1182 51.2838 33.1182Z" fill="black"/>
<path d="M56.3626 33.1182C56.6431 33.1182 56.8705 32.8909 56.8705 32.6104C56.8705 32.3299 56.6431 32.1025 56.3626 32.1025C56.0821 32.1025 55.8547 32.3299 55.8547 32.6104C55.8547 32.8909 56.0821 33.1182 56.3626 33.1182Z" fill="black"/>
<path d="M36.0472 34.8112C36.3277 34.8112 36.5551 34.5838 36.5551 34.3033C36.5551 34.0228 36.3277 33.7954 36.0472 33.7954C35.7667 33.7954 35.5393 34.0228 35.5393 34.3033C35.5393 34.5838 35.7667 34.8112 36.0472 34.8112Z" fill="black"/>
<path d="M41.126 34.8112C41.4065 34.8112 41.6339 34.5838 41.6339 34.3033C41.6339 34.0228 41.4065 33.7954 41.126 33.7954C40.8455 33.7954 40.6181 34.0228 40.6181 34.3033C40.6181 34.5838 40.8455 34.8112 41.126 34.8112Z" fill="black"/>
<path d="M47.8978 34.8112C48.1783 34.8112 48.4057 34.5838 48.4057 34.3033C48.4057 34.0228 48.1783 33.7954 47.8978 33.7954C47.6173 33.7954 47.3899 34.0228 47.3899 34.3033C47.3899 34.5838 47.6173 34.8112 47.8978 34.8112Z" fill="black"/>
<path d="M54.6697 34.8112C54.9502 34.8112 55.1776 34.5838 55.1776 34.3033C55.1776 34.0228 54.9502 33.7954 54.6697 33.7954C54.3892 33.7954 54.1618 34.0228 54.1618 34.3033C54.1618 34.5838 54.3892 34.8112 54.6697 34.8112Z" fill="black"/>
<path d="M56.3626 34.8112C56.6431 34.8112 56.8705 34.5838 56.8705 34.3033C56.8705 34.0228 56.6431 33.7954 56.3626 33.7954C56.0821 33.7954 55.8547 34.0228 55.8547 34.3033C55.8547 34.5838 56.0821 34.8112 56.3626 34.8112Z" fill="black"/>
<path d="M37.7402 36.5042C38.0207 36.5042 38.2481 36.2768 38.2481 35.9963C38.2481 35.7158 38.0207 35.4884 37.7402 35.4884C37.4597 35.4884 37.2323 35.7158 37.2323 35.9963C37.2323 36.2768 37.4597 36.5042 37.7402 36.5042Z" fill="black"/>
<path d="M42.819 36.5042C43.0995 36.5042 43.3269 36.2768 43.3269 35.9963C43.3269 35.7158 43.0995 35.4884 42.819 35.4884C42.5385 35.4884 42.3111 35.7158 42.3111 35.9963C42.3111 36.2768 42.5385 36.5042 42.819 36.5042Z" fill="black"/>
<path d="M49.5908 36.5042C49.8713 36.5042 50.0987 36.2768 50.0987 35.9963C50.0987 35.7158 49.8713 35.4884 49.5908 35.4884C49.3103 35.4884 49.0829 35.7158 49.0829 35.9963C49.0829 36.2768 49.3103 36.5042 49.5908 36.5042Z" fill="black"/>
<path d="M51.2838 36.5042C51.5643 36.5042 51.7917 36.2768 51.7917 35.9963C51.7917 35.7158 51.5643 35.4884 51.2838 35.4884C51.0033 35.4884 50.7759 35.7158 50.7759 35.9963C50.7759 36.2768 51.0033 36.5042 51.2838 36.5042Z" fill="black"/>
<path d="M56.3626 36.5042C56.6431 36.5042 56.8705 36.2768 56.8705 35.9963C56.8705 35.7158 56.6431 35.4884 56.3626 35.4884C56.0821 35.4884 55.8547 35.7158 55.8547 35.9963C55.8547 36.2768 56.0821 36.5042 56.3626 36.5042Z" fill="black"/>
<path d="M37.7402 38.197C38.0207 38.197 38.2481 37.9697 38.2481 37.6892C38.2481 37.4087 38.0207 37.1813 37.7402 37.1813C37.4597 37.1813 37.2323 37.4087 37.2323 37.6892C37.2323 37.9697 37.4597 38.197 37.7402 38.197Z" fill="black"/>
<path d="M39.4331 38.197C39.7136 38.197 39.9409 37.9697 39.9409 37.6892C39.9409 37.4087 39.7136 37.1813 39.4331 37.1813C39.1526 37.1813 38.9252 37.4087 38.9252 37.6892C38.9252 37.9697 39.1526 38.197 39.4331 38.197Z" fill="black"/>
<path d="M44.512 38.197C44.7925 38.197 45.0199 37.9697 45.0199 37.6892C45.0199 37.4087 44.7925 37.1813 44.512 37.1813C44.2315 37.1813 44.0041 37.4087 44.0041 37.6892C44.0041 37.9697 44.2315 38.197 44.512 38.197Z" fill="black"/>
<path d="M46.2049 38.197C46.4854 38.197 46.7127 37.9697 46.7127 37.6892C46.7127 37.4087 46.4854 37.1813 46.2049 37.1813C45.9244 37.1813 45.697 37.4087 45.697 37.6892C45.697 37.9697 45.9244 38.197 46.2049 38.197Z" fill="black"/>
<path d="M47.8978 38.197C48.1783 38.197 48.4057 37.9697 48.4057 37.6892C48.4057 37.4087 48.1783 37.1813 47.8978 37.1813C47.6173 37.1813 47.3899 37.4087 47.3899 37.6892C47.3899 37.9697 47.6173 38.197 47.8978 38.197Z" fill="black"/>
<path d="M49.5908 38.197C49.8713 38.197 50.0987 37.9697 50.0987 37.6892C50.0987 37.4087 49.8713 37.1813 49.5908 37.1813C49.3103 37.1813 49.0829 37.4087 49.0829 37.6892C49.0829 37.9697 49.3103 38.197 49.5908 38.197Z" fill="black"/>
<path d="M36.0472 39.89C36.3277 39.89 36.5551 39.6626 36.5551 39.3821C36.5551 39.1016 36.3277 38.8742 36.0472 38.8742C35.7667 38.8742 35.5393 39.1016 35.5393 39.3821C35.5393 39.6626 35.7667 39.89 36.0472 39.89Z" fill="black"/>
<path d="M37.7402 39.89C38.0207 39.89 38.2481 39.6626 38.2481 39.3821C38.2481 39.1016 38.0207 38.8742 37.7402 38.8742C37.4597 38.8742 37.2323 39.1016 37.2323 39.3821C37.2323 39.6626 37.4597 39.89 37.7402 39.89Z" fill="black"/>
<path d="M39.4331 39.89C39.7136 39.89 39.9409 39.6626 39.9409 39.3821C39.9409 39.1016 39.7136 38.8742 39.4331 38.8742C39.1526 38.8742 38.9252 39.1016 38.9252 39.3821C38.9252 39.6626 39.1526 39.89 39.4331 39.89Z" fill="black"/>
<path d="M41.126 39.89C41.4065 39.89 41.6339 39.6626 41.6339 39.3821C41.6339 39.1016 41.4065 38.8742 41.126 38.8742C40.8455 38.8742 40.6181 39.1016 40.6181 39.3821C40.6181 39.6626 40.8455 39.89 41.126 39.89Z" fill="black"/>
<path d="M42.819 39.89C43.0995 39.89 43.3269 39.6626 43.3269 39.3821C43.3269 39.1016 43.0995 38.8742 42.819 38.8742C42.5385 38.8742 42.3111 39.1016 42.3111 39.3821C42.3111 39.6626 42.5385 39.89 42.819 39.89Z" fill="black"/>
<path d="M47.8978 39.89C48.1783 39.89 48.4057 39.6626 48.4057 39.3821C48.4057 39.1016 48.1783 38.8742 47.8978 38.8742C47.6173 38.8742 47.3899 39.1016 47.3899 39.3821C47.3899 39.6626 47.6173 39.89 47.8978 39.89Z" fill="black"/>
<path d="M49.5908 39.89C49.8713 39.89 50.0987 39.6626 50.0987 39.3821C50.0987 39.1016 49.8713 38.8742 49.5908 38.8742C49.3103 38.8742 49.0829 39.1016 49.0829 39.3821C49.0829 39.6626 49.3103 39.89 49.5908 39.89Z" fill="black"/>
<path d="M54.6697 39.89C54.9502 39.89 55.1776 39.6626 55.1776 39.3821C55.1776 39.1016 54.9502 38.8742 54.6697 38.8742C54.3892 38.8742 54.1618 39.1016 54.1618 39.3821C54.1618 39.6626 54.3892 39.89 54.6697 39.89Z" fill="black"/>
<path d="M21.6571 12.5243V8.67623C21.6571 6.47094 23.4726 4.67664 25.7031 4.67664H29.462C31.6923 4.67664 33.5078 6.47094 33.5078 8.67623V16.5273L25.7031 16.5249C23.4726 16.5249 21.6571 14.7307 21.6571 12.5243ZM23.4347 12.5243C23.4347 13.7501 24.4522 14.7474 25.7035 14.7474L31.7302 14.7492V8.67623C31.7302 7.45099 30.7127 6.45423 29.462 6.45423H25.7031C24.4522 6.45423 23.4347 7.45099 23.4347 8.67623V12.5243Z" fill="black"/>
<path d="M57.2091 12.5243V8.67623C57.2091 6.47094 55.3936 4.67664 53.1632 4.67664H49.4043C47.174 4.67664 45.3585 6.47094 45.3585 8.67623V16.5273L53.1632 16.5249C55.3936 16.5249 57.2091 14.7307 57.2091 12.5243ZM55.4316 12.5243C55.4316 13.7501 54.4141 14.7474 53.1627 14.7474L47.1361 14.7492V8.67623C47.1361 7.45099 48.1536 6.45423 49.4043 6.45423H53.1632C54.4141 6.45423 55.4316 7.45099 55.4316 8.67623V12.5243Z" fill="black"/>
<path d="M21.6571 32.3811V36.2292C21.6571 38.4345 23.4726 40.2288 25.7031 40.2288H29.462C31.6923 40.2288 33.5078 38.4345 33.5078 36.2292V28.3781L25.7031 28.3805C23.4726 28.3805 21.6571 30.1747 21.6571 32.3811ZM23.4347 32.3811C23.4347 31.1553 24.4522 30.1579 25.7035 30.1579L31.7302 30.1562V36.2292C31.7302 37.4544 30.7127 38.4512 29.462 38.4512H25.7031C24.4522 38.4512 23.4347 37.4544 23.4347 36.2292V32.3811Z" fill="black"/>
<path d="M25.0431 11.7588V9.44369C25.0431 8.68227 25.6726 8.0625 26.4464 8.0625H28.7186C29.4923 8.0625 30.1219 8.68227 30.1219 9.44369V13.1413L26.4464 13.1392C25.6726 13.1392 25.0431 12.5203 25.0431 11.7588Z" fill="black"/>
<path d="M53.8232 11.7588V9.44369C53.8232 8.68227 53.1936 8.0625 52.4199 8.0625H50.1476C49.3739 8.0625 48.7443 8.68227 48.7443 9.44369V13.1413L52.4199 13.1392C53.1936 13.1392 53.8232 12.5203 53.8232 11.7588Z" fill="black"/>
<path d="M25.0431 33.1464V35.4615C25.0431 36.2229 25.6726 36.8427 26.4464 36.8427H28.7186C29.4923 36.8427 30.1219 36.2229 30.1219 35.4615V31.7639L26.4464 31.766C25.6726 31.766 25.0431 32.3849 25.0431 33.1464Z" fill="black"/>
<rect x="16" width="2" height="6" fill="black"/>
<rect x="16" y="2" width="2" height="6" transform="rotate(-90 16 2)" fill="black"/>
<rect x="63" width="2" height="6" transform="rotate(90 63 0)" fill="black"/>
<rect x="61" width="2" height="6" fill="black"/>
<rect x="63" y="44" width="2" height="6" transform="rotate(180 63 44)" fill="black"/>
<rect x="63" y="42" width="2" height="6" transform="rotate(90 63 42)" fill="black"/>
<rect x="16" y="44" width="2" height="6" transform="rotate(-90 16 44)" fill="black"/>
<rect x="18" y="44" width="2" height="6" transform="rotate(180 18 44)" fill="black"/>
<circle cx="4" cy="22" r="4" fill="#019ADE"/>
<path d="M77 22C77 24.2091 75.2091 26 73 26C70.7909 26 69 24.2091 69 22C69 19.7909 70.7909 18 73 18C75.2091 18 77 19.7909 77 22Z" fill="#019ADE"/>
<rect x="7" y="21" width="64" height="2" fill="#019ADE"/>
</svg>
