<svg width="30" height="30" viewBox="0 0 30 30" fill="none" xmlns="http://www.w3.org/2000/svg">
<g id="info_24px">
<path id="icon/action/info_24px" fill-rule="evenodd" clip-rule="evenodd" d="M15 2.5C8.1 2.5 2.5 8.1 2.5 15C2.5 21.9 8.1 27.5 15 27.5C21.9 27.5 27.5 21.9 27.5 15C27.5 8.1 21.9 2.5 15 2.5ZM13.75 8.75V11.25H16.25V8.75H13.75ZM13.75 13.75V21.25H16.25V13.75H13.75ZM5 15C5 20.5125 9.4875 25 15 25C20.5125 25 25 20.5125 25 15C25 9.4875 20.5125 5 15 5C9.4875 5 5 9.4875 5 15Z" fill="black"/>
</g>
</svg>
